<mxfile host="app.diagrams.net" modified="2023-04-28T07:56:55.096Z" agent="Mozilla/5.0 (Windows NT 10.0; Win64; x64) AppleWebKit/537.36 (KHTML, like Gecko) Chrome/112.0.0.0 Safari/537.36" version="21.2.3" etag="l2NGJEhhCPOZ0CiiFABJ" type="github">
  <diagram name="Page-1" id="14xnCQhIqdQmL1j1vv5w">
    <mxGraphModel>
      <root>
        <mxCell id="0" />
        <mxCell id="1" parent="0" />
      </root>
    </mxGraphModel>
  </diagram>
</mxfile>
